# xmcd CD database file
#
# Track frame offsets:
#	150
#	17613
#	33846
#	52643
#	73478
#	87353
#	99536
#	114714
#	136026
#	150191
#	164349
#	177932
#	194127
#	205617
#	223317
#	251122
#	266297
#	285616
#	300293
#	309278
#	324658
#	339345
#
# Disc length: 4715 seconds
#
# Revision: 0
# Processed by: cddbd v1.5.1PL2 Copyright (c) Steve Scherf et al.
# Submitted via: CDex 1.51
#
DISCID=2e126916
DTITLE=Various Artist - Country Super Best CD 1
DYEAR=1900
DGENRE=Country
TTITLE0=Alan Jackson - I Don't Ever Know Your Name
TTITLE1=The Maverics - The End Of The Line
TTITLE2=Garth Brooks - Don't Cross The River
TTITLE3=Dwight Yokam - A Place To Cry
TTITLE4=Pirates Of The Mississippi - Honky Tonk Blues
TTITLE5=Red Simpson - Diesel Smoke, Dangerous Curves
TTITLE6=Confederate Railroad - Queen Of Memphis
TTITLE7=Clint Black - We Tall Ourselves
TTITLE8=Robney Crowell - Crazy Baby
TTITLE9=Randy Scruggs - Lonesome Ruben
TTITLE10=John Brack - I've Been Going Home Since Friday Night
TTITLE11=Ricky Scaggs - Love's Gonna Get You Some Day
TTITLE12=Tracy Bird - Holdin' Heaven
TTITLE13=Hank Williams III - Cocaine Blues
TTITLE14=The Tractors - I Wouldn't Tell You No Lie
TTITLE15=Johnny Cash - Personal Jesus
TTITLE16=Bellamy Brothers - Let's Roll America
TTITLE17=Montgomery Gentry - Ramblin' Man
TTITLE18=Beat Farmers - I Want You, Too
TTITLE19=Travis Tritt - Still In Love With You
TTITLE20=Tim McGraw - That's Just Me
TTITLE21=Johnny Western - Ghost Riders In The Sky
EXTD=
EXTT0=
EXTT1=
EXTT2=
EXTT3=
EXTT4=
EXTT5=
EXTT6=
EXTT7=
EXTT8=
EXTT9=
EXTT10=
EXTT11=
EXTT12=
EXTT13=
EXTT14=
EXTT15=
EXTT16=
EXTT17=
EXTT18=
EXTT19=
EXTT20=
EXTT21=
PLAYORDER=
